# xmcd
#
# Track frame offsets:
# 150
# 15458
# 31140
# 50580
# 70535
# 97847
# 116816
# 133816
# 155591
# 174366
# 196672
#
# Disc length: 3174 seconds
#
#
# Revision: 0
# Processed by: cddbd v1.4PL0 Copyright (c) Steve Scherf et al.
# Submitted via: FreeRIP 2.10 
#
DISCID=840c640b
DTITLE=Mister Weaver - Tonight
DYEAR=2003
DGENRE=Country
TTITLE0=Mew
TTITLE1=hello
TTITLE2=mine
TTITLE3=shutup
TTITLE4=but
TTITLE5=why
TTITLE6=do you want
TTITLE7=me to go
TTITLE8=with her
TTITLE9=tonight
TTITLE10=oh tonight
EXTD=
EXTT0=
EXTT1=
EXTT2=
EXTT3=
EXTT4=
EXTT5=
EXTT6=
EXTT7=
EXTT8=
EXTT9=
EXTT10=
PLAYORDER=
